#!OML:ASF H:\BabyWalks\Project 1\Capture day 1\Session 1\baby.ASF
:FULLY-SPECIFIED
:DEGREES
551
root -16.5773 17.3319 -1.57566 -46.0834 85.2603 -48.5457
lowerback 20.4052 1.463 3.75155
upperback 5.17238 3.14366 1.88131
thorax -5.69467 1.63814 -0.904073
lowerneck -6.99861 0.472189 7.21309
upperneck 6.77086 0.638396 -8.82747
head 3.20119 0.138562 -3.83815
rclavicle 9.74045e-015 -1.59028e-015
rhumerus -47.2236 8.18035 -82.7769
rradius 48.684
rwrist -5.8786
rhand -16.9454 -16.1891
rfingers 7.12502
rthumb 9.28801 -45.9645
lclavicle 9.74045e-015 -1.59028e-015
lhumerus -60.4961 -10.3044 83.4304
lradius 38.6534
lwrist -14.1329
lhand 3.78912 1.96566
lfingers 7.12502
lthumb 29.2143 29.6924
rfemur -0.756046 12.444 25.3656
rtibia 28.985
rfoot -24.9011 -0.93788
rtoes -7.28767
lfemur -33.6421 1.85645 -10.6194
ltibia 34.8949
lfoot -19.4556 -13.9015
ltoes -13.0454
552
root -16.3874 17.3618 -1.57802 -44.6744 84.8992 -47.2585
lowerback 20.1438 1.62919 3.66108
upperback 5.13891 3.30639 1.68748
thorax -5.58044 1.71622 -1.08934
lowerneck -6.97962 0.417232 7.08124
upperneck 7.04827 0.532952 -8.14615
head 3.27076 0.109211 -3.61263
rclavicle -2.16675e-014 3.73715e-014
rhumerus -47.3894 8.37101 -83.154
rradius 49.3522
rwrist -6.77766
rhand -16.443 -16.0518
rfingers 7.12502
rthumb 9.77278 -45.8051
lclavicle -2.16675e-014 3.73715e-014
lhumerus -61.1103 -10.2632 83.0406
lradius 38.7421
lwrist -13.5438
lhand 3.98916 2.096
lfingers 7.12502
lthumb 29.4053 29.7893
rfemur 0.327234 12.5812 25.586
rtibia 27.7498
rfoot -24.2054 -0.604514
rtoes -7.90825
lfemur -33.6158 1.27781 -10.2827
ltibia 33.0683
lfoot -19.0572 -12.976
ltoes -13.2163
553
root -16.1964 17.3892 -1.58147 -43.4124 84.4724 -46.1049
lowerback 19.8891 1.79823 3.58292
upperback 5.09972 3.47746 1.49777
thorax -5.47413 1.79825 -1.27784
lowerneck -6.93021 0.361906 6.95508
upperneck 7.31974 0.424068 -7.44039
head 3.33451 0.0815471 -3.38093
rclavicle -3.67752e-015 1.31198e-014
rhumerus -47.5685 8.53126 -83.5129
rradius 49.9693
rwrist -7.59136
rhand -15.9679 -16
rfingers 7.12502
rthumb 10.2312 -45.7312
lclavicle -3.67752e-015 1.31198e-014
lhumerus -61.671 -10.2492 82.6456
lradius 38.858
lwrist -12.939
lhand 4.13888 2.21966
lfingers 7.12502
lthumb 29.5483 29.8878
rfemur 1.35951 12.6853 25.833
rtibia 26.6256
rfoot -23.4635 -0.186696
rtoes -8.49722
lfemur -33.531 0.744059 -9.87938
ltibia 31.5235
lfoot -18.8225 -12.0346
ltoes -13.4224
554
root -16.0046 17.4134 -1.58619 -42.3524 83.9787 -45.1319
lowerback 19.6536 1.96157 3.51341
upperback 5.05809 3.64641 1.32268
thorax -5.38003 1.87925 -1.45446
lowerneck -6.86305 0.315778 6.82638
upperneck 7.58855 0.326628 -6.72743
head 3.39662 0.0617098 -3.14634
rclavicle 2.98177e-015 -4.29375e-014
rhumerus -47.7468 8.68594 -83.846
rradius 50.5282
rwrist -8.29464
rhand -15.5317 -15.9974
rfingers 7.12502
rthumb 10.6519 -45.7074
lclavicle 2.98177e-015 -4.29375e-014
lhumerus -62.1693 -10.232 82.253
lradius 38.9781
lwrist -12.3486
lhand 4.26084 2.3287
lfingers 7.12502
lthumb 29.6647 29.9762
rfemur 2.32644 12.7412 26.102
rtibia 25.6542
rfoot -22.6679 0.342932
rtoes -9.08809
lfemur -33.379 0.264295 -9.42048
ltibia 30.2727
lfoot -18.7273 -11.0896
ltoes -13.6189
555
root -15.8125 17.4338 -1.59224 -41.5814 83.4171 -44.4217
lowerback 19.4426 2.11263 3.45821
upperback 5.01787 3.80664 1.17183
thorax -5.29764 1.95614 -1.61111
lowerneck -6.79265 0.281137 6.692
upperneck 7.85958 0.244735 -6.02205
head 3.46106 0.0506839 -2.91273
rclavicle -1.52567e-014 1.05356e-014
rhumerus -47.9116 8.84615 -84.1433
rradius 51.0283
rwrist -8.88015
rhand -15.0964 -16.0507
rfingers 7.12502
rthumb 11.0718 -45.7386
lclavicle -1.52567e-014 1.05356e-014
lhumerus -62.5993 -10.1967 81.8747
lradius 39.0891
lwrist -11.8061
lhand 4.35968 2.42701
lfingers 7.12502
lthumb 29.759 30.0576
rfemur 3.21254 12.7325 26.3954
rtibia 24.8732
rfoot -21.8384 0.98925
rtoes -9.71089
lfemur -33.1596 -0.146996 -8.91547
ltibia 29.3246
lfoot -18.7082 -10.1548
ltoes -13.8595
556
root -15.6204 17.4493 -1.59966 -41.1203 82.7801 -43.9933
lowerback 19.2617 2.25032 3.44092
upperback 4.97583 3.96091 1.04301
thorax -5.23159 2.02982 -1.7648
lowerneck -6.70797 0.255725 6.56262
upperneck 8.12651 0.175314 -5.33094
head 3.52367 0.0470013 -2.6839
rclavicle 3.45637e-014 -2.15681e-014
rhumerus -48.0609 8.98677 -84.4028
rradius 51.4628
rwrist -9.35081
rhand -14.6576 -16.1392
rfingers 7.12502
rthumb 11.495 -45.8041
lclavicle 3.45637e-014 -2.15681e-014
lhumerus -62.9619 -10.1641 81.5173
lradius 39.1776
lwrist -11.3239
lhand 4.45357 2.51822
lfingers 7.12502
lthumb 29.8486 30.1328
rfemur 4.00152 12.6574 26.7175
rtibia 24.3189
rfoot -20.9808 1.76727
rtoes -10.3432
lfemur -32.8715 -0.483456 -8.36244
ltibia 28.6787
lfoot -18.6805 -9.24955
ltoes -14.1675
557
root -15.4285 17.4597 -1.60849 -40.9487 82.0703 -43.8277
lowerback 19.11 2.36759 3.46608
upperback 4.93573 4.10072 0.939161
thorax -5.17772 2.09629 -1.91324
lowerneck -6.68262 0.249081 6.44431
upperneck 8.12963 0.100013 -4.46044
head 3.90976 0.0660399 -2.66779
rclavicle -1.41261e-014 1.04362e-015
rhumerus -48.1863 9.12449 -84.6271
rradius 51.8269
rwrist -9.70405
rhand -14.2519 -16.2145
rfingers 7.12502
rthumb 11.8862 -45.8571
lclavicle -1.41261e-014 1.04362e-015
lhumerus -63.2495 -10.1171 81.1809
lradius 39.2255
lwrist -10.9362
lhand 4.51363 2.5732
lfingers 7.12502
lthumb 29.906 30.1775
rfemur 4.67224 12.5067 27.0611
rtibia 24.0243
rfoot -20.0964 2.68555
rtoes -10.995
lfemur -32.5233 -0.749651 -7.75873
ltibia 28.332
lfoot -18.5058 -8.45272
ltoes -14.5311
558
root -15.2375 17.4655 -1.61875 -40.9962 81.2957 -43.8586
lowerback 18.9862 2.45939 3.53572
upperback 4.89877 4.2192 0.857332
thorax -5.13407 2.15219 -2.05938
lowerneck -6.60615 0.25593 6.3012
upperneck 8.38705 0.0763325 -3.8164
head 3.97574 0.0830608 -2.42101
rclavicle -6.93758e-014 1.37161e-014
rhumerus -48.2739 9.26149 -84.8176
rradius 52.1124
rwrist -9.94374
rhand -13.8641 -16.2691
rfingers 7.12502
rthumb 12.2602 -45.8897
lclavicle -6.93758e-014 1.37161e-014
lhumerus -63.4592 -10.0518 80.8658
lradius 39.2251
lwrist -10.6662
lhand 4.54418 2.62447
lfingers 7.12502
lthumb 29.9351 30.2235
rfemur 5.19913 12.2922 27.4144
rtibia 24.0234
rfoot -19.1768 3.73814
rtoes -11.6373
lfemur -32.1301 -0.945045 -7.1088
ltibia 28.2724
lfoot -18.0608 -7.80135
ltoes -14.7531
559
root -15.0483 17.4665 -1.63027 -41.1966 80.463 -44.0214
lowerback 18.8941 2.52132 3.64899
upperback 4.86617 4.31008 0.793231
thorax -5.10153 2.19444 -2.20639
lowerneck -6.51892 0.282807 6.15511
upperneck 8.61327 0.0797992 -3.18599
head 4.03107 0.113423 -2.17754
rclavicle 3.8763e-015 -3.18055e-015
rhumerus -48.317 9.39639 -84.981
rradius 52.3134
rwrist -10.0704
rhand -13.4949 -16.3046
rfingers 7.12502
rthumb 12.6161 -45.9036
lclavicle 3.8763e-015 -3.18055e-015
lhumerus -63.5843 -9.96661 80.5697
lradius 39.1608
lwrist -10.5179
lhand 4.53544 2.64194
lfingers 7.12502
lthumb 29.9268 30.2424
rfemur 5.56098 12.0362 27.7713
rtibia 24.3471
rfoot -18.1924 4.89644
rtoes -12.2816
lfemur -31.7112 -1.05027 -6.4224
ltibia 28.4853
lfoot -17.3667 -7.33348
ltoes -14.7961
560
root -14.8616 17.4641 -1.64279 -41.409 79.5926 -44.1751
lowerback 18.8384 2.55365 3.78592
upperback 4.84057 4.36919 0.734233
thorax -5.08066 2.22111 -2.35604
lowerneck -6.41488 0.334254 6.01852
upperneck 8.78957 0.116172 -2.57414
head 4.06787 0.159519 -1.94067
rclavicle 7.44449e-014 2.78299e-015
rhumerus -48.3099 9.52392 -85.1268
rradius 52.4284
rwrist -10.0931
rhand -13.18 -16.3023
rfingers 7.12502
rthumb 12.9197 -45.8823
lclavicle 7.44449e-014 2.78299e-015
lhumerus -63.6215 -9.87206 80.2906
lradius 39.0407
lwrist -10.4786
lhand 4.50163 2.6292
lfingers 7.12502
lthumb 29.8945 30.2355
rfemur 5.73542 11.7691 28.1062
rtibia 25.0289
rfoot -17.1273 6.12395
rtoes -12.9206
lfemur -31.2842 -1.05171 -5.72887
ltibia 28.946
lfoot -16.4895 -7.08676
ltoes -14.6807
